<svg width="207" height="110" viewBox="0 0 207 110" fill="none" xmlns="http://www.w3.org/2000/svg">
<path d="M15.7702 67.4077V98.1846C15.7519 101.705 14.7427 104.419 12.7428 106.326C10.7428 108.233 7.95392 109.186 4.37603 109.186C2.83479 109.186 1.37611 109.03 0 108.719V101.705C1.06419 101.87 1.93573 101.953 2.61461 101.953C5.18335 101.953 6.46772 100.678 6.46772 98.1296V67.4077H15.7702Z" fill="black"/>
<path d="M36.6321 88.8058C36.6321 88.0174 36.2192 87.3848 35.3936 86.908C34.5679 86.4313 32.9991 85.9362 30.6873 85.4228C28.3754 84.9094 26.4672 84.2402 24.9626 83.415C23.4581 82.5716 22.3113 81.5539 21.5224 80.3621C20.7334 79.1703 20.3389 77.8042 20.3389 76.264C20.3389 73.532 21.4673 71.2858 23.7241 69.5255C25.981 67.747 28.935 66.8577 32.5863 66.8577C36.5128 66.8577 39.6687 67.747 42.0539 69.5255C44.4392 71.3041 45.6318 73.642 45.6318 76.5391H36.3293C36.3293 74.1554 35.0725 72.9635 32.5588 72.9635C31.5863 72.9635 30.7698 73.2386 30.1093 73.7887C29.4488 74.3204 29.1185 74.9897 29.1185 75.7964C29.1185 76.6216 29.5222 77.2908 30.3295 77.8042C31.1368 78.3176 32.4212 78.7394 34.1826 79.0694C35.9624 79.3995 37.522 79.7937 38.8614 80.2521C43.3383 81.7923 45.5768 84.5519 45.5768 88.5308C45.5768 91.2445 44.3658 93.454 41.9439 95.1592C39.5402 96.8645 36.4211 97.7171 32.5863 97.7171C30.0359 97.7171 27.7607 97.2587 25.7608 96.3419C23.7608 95.4251 22.2013 94.1782 21.082 92.6013C19.9628 91.0245 19.4032 89.3651 19.4032 87.6231H28.0727C28.1094 88.9983 28.5681 90.0068 29.4488 90.6486C30.3295 91.272 31.4579 91.5837 32.834 91.5837C34.1 91.5837 35.045 91.327 35.6688 90.8136C36.311 90.3002 36.6321 89.6309 36.6321 88.8058Z" fill="black"/>
<path d="M87.0582 82.0128C87.0582 79.0423 87.6362 76.402 88.7921 74.0916C89.9481 71.763 91.6086 69.9752 93.7736 68.7284C95.9387 67.4815 98.4799 66.8581 101.397 66.8581C105.856 66.8581 109.37 68.2425 111.938 71.0112C114.507 73.7616 115.791 77.5113 115.791 82.2603V82.5903C115.791 87.2293 114.498 90.9149 111.911 93.6469C109.342 96.3607 105.856 97.7175 101.452 97.7175C97.2139 97.7175 93.8103 96.4523 91.2416 93.922C88.6729 91.3733 87.2876 87.9261 87.0857 83.5805L87.0582 82.0128ZM96.3332 82.5903C96.3332 85.3407 96.7644 87.3577 97.6268 88.6412C98.4891 89.9247 99.7643 90.5665 101.452 90.5665C104.755 90.5665 106.443 88.027 106.516 82.9479V82.0128C106.516 76.677 104.81 74.0091 101.397 74.0091C98.2965 74.0091 96.6176 76.3103 96.3607 80.9126L96.3332 82.5903Z" fill="black"/>
<path d="M129.663 97.1674H120.36V54.9214H129.663V97.1674Z" fill="black"/>
<path d="M145.185 97.1674H135.883V67.4082H145.185V97.1674Z" fill="black"/>
<path d="M163.515 90.5665C164.818 90.5665 165.827 90.2181 166.542 89.5213C167.258 88.8062 167.607 87.8161 167.588 86.5509H176.285C176.285 89.8147 175.111 92.4918 172.762 94.5821C170.432 96.6724 167.423 97.7175 163.735 97.7175C159.405 97.7175 155.992 96.3607 153.497 93.6469C151.002 90.9332 149.754 87.1743 149.754 82.3703V81.9853C149.754 78.9782 150.304 76.3286 151.405 74.0366C152.524 71.7263 154.13 69.9569 156.222 68.7284C158.313 67.4815 160.79 66.8581 163.653 66.8581C167.524 66.8581 170.597 67.9308 172.872 70.0761C175.148 72.2214 176.285 75.1276 176.285 78.7948H167.588C167.588 77.2546 167.212 76.0719 166.46 75.2468C165.708 74.4217 164.698 74.0091 163.432 74.0091C161.029 74.0091 159.625 75.5402 159.221 78.6023C159.093 79.5741 159.029 80.9126 159.029 82.6179C159.029 85.6066 159.387 87.6786 160.102 88.8337C160.818 89.9889 161.955 90.5665 163.515 90.5665Z" fill="black"/>
<path d="M192.111 84.1856L197.065 67.4082H207L194.863 102.146L194.34 103.411C192.615 107.261 189.569 109.187 185.202 109.187C183.991 109.187 182.716 109.003 181.377 108.637V102.008H182.588C183.891 102.008 184.881 101.816 185.56 101.431C186.257 101.064 186.771 100.395 187.101 99.4228L187.845 97.4425L177.496 67.4082H187.404L192.111 84.1856Z" fill="black"/>
<path d="M51.8079 83.169C51.8079 74.5682 58.7802 67.5959 67.3809 67.5959H81.4163V83.9378C81.4163 92.114 74.7882 98.7421 66.6121 98.7421V98.7421C58.4359 98.7421 51.8079 92.114 51.8079 83.9378V83.169Z" fill="#29CF42"/>
<path d="M87.0363 57.7363C102.601 57.7363 115.219 45.7573 115.219 30.9804C115.219 16.2036 102.601 4.22461 87.0363 4.22461V30.9804V57.7363Z" fill="#29CF42"/>
<ellipse cx="66.6038" cy="14.7861" rx="14.7959" ry="14.7861" fill="#FF6259"/>
<ellipse cx="10.943" cy="59.1477" rx="4.93198" ry="4.9287" fill="black"/>
<ellipse cx="140.583" cy="59.8501" rx="4.93198" ry="4.92871" fill="black"/>
<ellipse cx="66.6038" cy="48.5838" rx="14.7959" ry="14.7861" fill="#FFE500"/>
</svg>
